# xmcd CD database file
#
# Track frame offsets:
#	150
#	46528
#	86127
#	123239
#	152606
#	193923
#	234776
#	270873
#
# Disc length: 3985 seconds
#
# Revision: 0
# Processed by: cddbd v1.5.2PL0 Copyright (c) Steve Scherf et al.
# Submitted via: CDex 1.51
#
DISCID=550f8f08
DTITLE=Harold Danko - Oatts and Perry
DYEAR=2005
DGENRE=Jazz
TTITLE0=Softly as in a morning sunrise
TTITLE1=Like Sonny
TTITLE2=Evol deklaw ni
TTITLE3=Peace
TTITLE4=I mean you
TTITLE5=Unit 7
TTITLE6=Tidal breeze
TTITLE7=Don't get sassy
EXTD=YEAR: 2005
EXTT0=
EXTT1=
EXTT2=
EXTT3=
EXTT4=
EXTT5=
EXTT6=
EXTT7=
PLAYORDER=
